<svg width="176" height="176" viewBox="0 0 176 176" fill="none" xmlns="http://www.w3.org/2000/svg">
<path d="M127.741 115.184L139.002 119.544L137.899 121.026L129.317 117.463L129.253 117.549L135.073 124.822L133.98 126.29L125.339 122.796L125.275 122.883L131.157 130.081L130.051 131.567L122.648 122.025L123.703 120.608L132.157 123.848L132.211 123.775L126.682 116.606L127.741 115.184Z" fill="#838A95"/>
<path d="M119.8 124.891L121.228 123.693L125.5 135.299L123.946 136.602L113.258 130.38L114.686 129.182L123.327 134.362L123.397 134.304L119.8 124.891ZM122.49 128.582L117.859 132.468L116.909 131.337L121.54 127.451L122.49 128.582Z" fill="#838A95"/>
<path d="M116.216 140.351L116.895 141.702L108.847 145.744L108.168 144.393L111.413 142.763L106.869 133.715L108.433 132.93L112.977 141.978L116.216 140.351Z" fill="#838A95"/>
<path d="M93.816 146.01L95.5409 145.601C95.6946 145.954 95.895 146.249 96.142 146.486C96.3889 146.723 96.6664 146.909 96.9744 147.042C97.2824 147.175 97.6104 147.253 97.9583 147.276C98.3026 147.3 98.6553 147.269 99.0165 147.183C99.6689 147.028 100.214 146.726 100.652 146.275C101.087 145.826 101.378 145.249 101.527 144.544C101.671 143.84 101.635 143.031 101.419 142.117C101.2 141.196 100.869 140.453 100.423 139.889C99.9747 139.326 99.4538 138.943 98.861 138.741C98.2681 138.539 97.6491 138.515 97.0041 138.667C96.6466 138.752 96.3189 138.88 96.0209 139.052C95.7202 139.229 95.4616 139.444 95.2454 139.697C95.0291 139.951 94.8634 140.238 94.7484 140.557C94.6305 140.881 94.5793 141.231 94.5949 141.609L92.8686 142.012C92.8289 141.434 92.8862 140.879 93.0406 140.348C93.1923 139.822 93.4343 139.34 93.7667 138.903C94.0964 138.471 94.5029 138.1 94.9863 137.791C95.4696 137.482 96.0228 137.253 96.6457 137.106C97.6261 136.873 98.5547 136.899 99.4314 137.181C100.309 137.468 101.072 137.993 101.72 138.758C102.365 139.524 102.83 140.51 103.116 141.715C103.403 142.924 103.427 144.014 103.19 144.985C102.954 145.96 102.508 146.77 101.851 147.416C101.196 148.066 100.379 148.507 99.4026 148.738C98.8018 148.88 98.221 148.927 97.6603 148.877C97.0967 148.831 96.5674 148.692 96.0723 148.459C95.578 148.229 95.1382 147.909 94.7528 147.499C94.3682 147.091 94.0559 146.595 93.816 146.01Z" fill="#838A95"/>
<path d="M90.2294 138.516L90.2294 150.152L88.4738 150.152L88.4738 145.095L82.6726 145.095L82.6726 150.152L80.9113 150.152L80.9113 138.516L82.6726 138.516L82.6726 143.589L88.4738 143.589L88.4738 138.516L90.2294 138.516Z" fill="#838A95"/>
<path d="M62.7048 142.531L64.0641 132.609L63.9473 132.55L56.7997 139.566L55.1039 138.714L64.0683 130.195L65.881 131.105L64.4007 143.383L62.7048 142.531Z" fill="#838A95"/>
<path d="M47.0667 132.526L54.5465 123.612L55.8914 124.74L48.4117 133.654L47.0667 132.526Z" fill="#838A95"/>
<path d="M48.0282 116.607L50.2777 119.628L40.9439 126.577L38.6231 123.46C37.9423 122.545 37.5444 121.621 37.4296 120.686C37.3116 119.754 37.4705 118.854 37.9062 117.987C38.3365 117.119 39.0363 116.324 40.0056 115.602C40.9778 114.878 41.9457 114.434 42.9092 114.269C43.8704 114.101 44.7882 114.212 45.6626 114.6C46.5339 114.99 47.3224 115.659 48.0282 116.607ZM47.9988 119.136L46.8553 117.6C46.326 116.889 45.7524 116.398 45.1344 116.126C44.5134 115.856 43.8606 115.795 43.176 115.941C42.4883 116.089 41.7753 116.438 41.037 116.988C40.3048 117.533 39.7705 118.112 39.4342 118.726C39.0957 119.337 38.9651 119.97 39.0423 120.626C39.1195 121.282 39.4114 121.95 39.9181 122.63L41.126 124.253L47.9988 119.136Z" fill="#838A95"/>
<path d="M44.2622 108.29L33.5775 112.899L30.6879 106.2L32.0756 105.602L34.2698 110.688L37.5253 109.284L35.4819 104.547L36.8645 103.951L38.9079 108.688L42.179 107.277L39.9578 102.127L41.3456 101.529L44.2622 108.29Z" fill="#838A95"/>
<path d="M32.9924 90.0452C34.2159 89.8295 35.3073 89.8678 36.2666 90.1602C37.2222 90.4533 38.0056 90.9479 38.6168 91.644C39.2236 92.337 39.6142 93.1778 39.7885 94.1663C39.9635 95.1586 39.8847 96.086 39.5521 96.9485C39.2152 97.8079 38.646 98.5391 37.8446 99.142C37.0432 99.7448 36.0325 100.154 34.8127 100.369C33.5892 100.585 32.4996 100.546 31.5441 100.253C30.5848 99.9605 29.8017 99.4678 29.1949 98.7748C28.5836 98.0787 28.1905 97.2345 28.0156 96.2422C27.8413 95.2537 27.9226 94.3297 28.2595 93.4702C28.5921 92.6077 29.1591 91.875 29.9605 91.2721C30.7582 90.6699 31.7688 90.261 32.9924 90.0452ZM33.2943 91.7574C32.3617 91.9219 31.6031 92.2114 31.0185 92.626C30.4295 93.0376 30.0169 93.5334 29.7807 94.1136C29.5402 94.6906 29.4777 95.3074 29.5935 95.964C29.7099 96.6242 29.9799 97.1844 30.4033 97.6443C30.823 98.105 31.3803 98.4298 32.0752 98.6188C32.7657 98.8048 33.5772 98.8155 34.5098 98.6511C35.4424 98.4866 36.2032 98.1986 36.7922 97.7871C37.3768 97.3725 37.7894 96.8766 38.03 96.2996C38.2668 95.7232 38.327 95.1048 38.2106 94.4445C38.0948 93.788 37.8271 93.2294 37.4074 92.7688C36.9833 92.3051 36.426 91.9803 35.7355 91.7943C35.0406 91.6053 34.2269 91.593 33.2943 91.7574Z" fill="#838A95"/>
<path d="M35.7135 69.5988L37.1232 70.0208L35.6436 74.9632L34.2338 74.5411L35.7135 69.5988Z" fill="#838A95"/>
<path d="M48.6955 57.4039L38.0168 51.766L39.284 50.4228L47.3944 54.9578L47.4685 54.8793L42.532 46.9802L43.7875 45.6494L51.9644 50.1222L52.0385 50.0437L47.0315 42.2109L48.3026 40.8636L54.548 51.2006L53.3354 52.4859L45.3152 48.2859L45.2528 48.352L49.912 56.1145L48.6955 57.4039Z" fill="#838A95"/>
<path d="M57.7081 48.684L56.151 49.7081L53.2553 37.685L54.95 36.5704L64.8429 43.9913L63.2859 45.0154L55.3045 38.8671L55.2285 38.917L57.7081 48.684ZM55.4651 44.7051L60.516 41.3831L61.3278 42.6173L56.2769 45.9394L55.4651 44.7051Z" fill="#838A95"/>
<path d="M63.064 33.7451L62.547 32.3249L71.0096 29.2447L71.5265 30.6649L68.1148 31.9067L71.5778 41.4211L69.9333 42.0196L66.4703 32.5053L63.064 33.7451Z" fill="#838A95"/>
<path d="M85.9697 30.7255L84.209 30.9313C84.0973 30.563 83.9325 30.2467 83.7148 29.9823C83.497 29.7179 83.2429 29.5016 82.9525 29.3334C82.662 29.1653 82.3454 29.0497 82.0024 28.9868C81.6632 28.9235 81.3093 28.9134 80.9406 28.9565C80.2746 29.0343 79.6979 29.2715 79.2103 29.6679C78.7265 30.0638 78.37 30.6032 78.1409 31.2859C77.9156 31.9682 77.8574 32.7759 77.9665 33.7089C78.0764 34.6495 78.3197 35.4257 78.6963 36.0376C79.0767 36.6491 79.5496 37.0896 80.115 37.3592C80.6804 37.6287 81.2923 37.725 81.9507 37.648C82.3157 37.6053 82.6561 37.516 82.972 37.3799C83.2912 37.2396 83.5729 37.056 83.8172 36.8292C84.0614 36.6023 84.2592 36.337 84.4106 36.0333C84.5653 35.7254 84.6568 35.3829 84.6852 35.0059L86.4466 34.8057C86.419 35.3848 86.2976 35.9291 86.0826 36.4385C85.8709 36.9438 85.5746 37.3941 85.1936 37.7895C84.816 38.1807 84.3692 38.5018 83.8532 38.7528C83.3372 39.0038 82.7613 39.1664 82.1255 39.2408C81.1247 39.3577 80.2053 39.2249 79.3674 38.8423C78.529 38.456 77.8322 37.8453 77.2769 37.0101C76.7254 36.1746 76.3778 35.1417 76.234 33.9114C76.0897 32.6774 76.1917 31.5919 76.5398 30.655C76.8875 29.7144 77.4249 28.9613 78.1521 28.3958C78.8788 27.8265 79.7406 27.4836 80.7376 27.367C81.3509 27.2954 81.9331 27.3169 82.4842 27.4318C83.0387 27.5424 83.5483 27.7421 84.013 28.0311C84.4773 28.3162 84.877 28.6852 85.2121 29.138C85.5468 29.587 85.7993 30.1162 85.9697 30.7255Z" fill="#838A95"/>
<path d="M88.6618 38.5855L90.0127 27.0278L91.7565 27.2316L91.1694 32.2543L96.9313 32.9277L97.5184 27.9051L99.2678 28.1096L97.9169 39.6673L96.1675 39.4628L96.7565 34.4232L90.9946 33.7498L90.4056 38.7893L88.6618 38.5855Z" fill="#838A95"/>
<path d="M118.256 35.3883L115.754 45.0861L115.863 45.1579L123.777 39.0194L125.362 40.0622L115.469 47.4832L113.775 46.3685L116.67 34.3454L118.256 35.3883Z" fill="#838A95"/>
<path d="M132.627 47.1402L124.163 55.1256L122.958 53.8485L131.422 45.8632L132.627 47.1402Z" fill="#838A95"/>
<path d="M129.824 62.8391L127.941 59.5768L138.018 53.7586L139.961 57.1243C140.531 58.1117 140.819 59.0761 140.825 60.0177C140.834 60.9573 140.572 61.8326 140.038 62.6435C139.51 63.4559 138.723 64.1641 137.676 64.7683C136.626 65.3744 135.613 65.7033 134.637 65.7551C133.663 65.8102 132.764 65.5943 131.941 65.1075C131.121 64.6187 130.415 63.8626 129.824 62.8391ZM130.147 60.3302L131.105 61.9884C131.548 62.7561 132.06 63.3108 132.643 63.6526C133.228 63.9925 133.869 64.1296 134.566 64.064C135.267 63.9965 136.015 63.7327 136.812 63.2725C137.603 62.816 138.201 62.3024 138.606 61.7316C139.013 61.1641 139.217 60.5503 139.216 59.8902C139.216 59.2301 139.003 58.5327 138.579 57.7978L137.567 56.0461L130.147 60.3302Z" fill="#838A95"/>
<path d="M133.71 70.6559L144.858 67.3186L146.95 74.3075L145.502 74.741L143.914 69.434L140.517 70.4508L141.997 75.3932L140.554 75.825L139.075 70.8826L135.662 71.9044L137.27 77.2767L135.822 77.7102L133.71 70.6559Z" fill="#838A95"/>
<path d="M142.784 90.0918C141.543 90.164 140.464 89.9992 139.545 89.5975C138.63 89.1954 137.909 88.6132 137.383 87.8509C136.861 87.0921 136.57 86.2117 136.512 85.2096C136.453 84.2037 136.639 83.2917 137.07 82.4736C137.504 81.6591 138.154 80.999 139.02 80.4932C139.886 79.9875 140.938 79.6986 142.174 79.6266C143.415 79.5543 144.492 79.7192 145.407 80.1212C146.326 80.523 147.047 81.1033 147.569 81.8621C148.095 82.6245 148.388 83.5086 148.446 84.5145C148.505 85.5166 148.317 86.4249 147.882 87.2394C147.452 88.0575 146.804 88.7194 145.938 89.2251C145.075 89.7307 144.024 90.0195 142.784 90.0918ZM142.683 88.3561C143.628 88.301 144.415 88.1015 145.044 87.7576C145.677 87.4172 146.144 86.9726 146.446 86.4238C146.752 85.8786 146.886 85.2732 146.847 84.6076C146.808 83.9383 146.605 83.3506 146.238 82.8446C145.874 82.3384 145.358 81.951 144.69 81.6826C144.026 81.4178 143.221 81.3129 142.276 81.3679C141.33 81.423 140.541 81.6207 139.908 81.9611C139.28 82.3051 138.812 82.7497 138.506 83.2949C138.204 83.8399 138.073 84.4471 138.112 85.1164C138.15 85.7819 138.351 86.3678 138.715 86.8741C139.082 87.3839 139.598 87.7712 140.262 88.0361C140.931 88.3045 141.737 88.4112 142.683 88.3561Z" fill="#838A95"/>
<path d="M140.294 106.917L138.889 106.479L140.423 101.554L141.828 101.991L140.294 106.917Z" fill="#838A95"/>
</svg>
