<svg width="161" height="32" viewBox="0 0 161 32" fill="none" xmlns="http://www.w3.org/2000/svg">
<path d="M30.6349 23L27.0554 9.90909H28.6662L31.402 20.571H31.5298L34.3168 9.90909H36.1065L38.8935 20.571H39.0213L41.7571 9.90909H43.3679L39.7884 23H38.152L35.2628 12.5682H35.1605L32.2713 23H30.6349ZM48.2131 23.2045C47.3267 23.2045 46.549 22.9936 45.88 22.5717C45.2152 22.1499 44.6953 21.5597 44.3203 20.8011C43.9496 20.0426 43.7642 19.1562 43.7642 18.142C43.7642 17.1193 43.9496 16.2266 44.3203 15.4638C44.6953 14.701 45.2152 14.1087 45.88 13.6868C46.549 13.2649 47.3267 13.054 48.2131 13.054C49.0994 13.054 49.875 13.2649 50.5398 13.6868C51.2088 14.1087 51.7287 14.701 52.0994 15.4638C52.4744 16.2266 52.6619 17.1193 52.6619 18.142C52.6619 19.1562 52.4744 20.0426 52.0994 20.8011C51.7287 21.5597 51.2088 22.1499 50.5398 22.5717C49.875 22.9936 49.0994 23.2045 48.2131 23.2045ZM48.2131 21.8494C48.8864 21.8494 49.4403 21.6768 49.875 21.3317C50.3097 20.9865 50.6314 20.5327 50.8402 19.9702C51.049 19.4077 51.1534 18.7983 51.1534 18.142C51.1534 17.4858 51.049 16.8743 50.8402 16.3075C50.6314 15.7408 50.3097 15.2827 49.875 14.9332C49.4403 14.5838 48.8864 14.4091 48.2131 14.4091C47.5398 14.4091 46.9858 14.5838 46.5511 14.9332C46.1165 15.2827 45.7947 15.7408 45.5859 16.3075C45.3771 16.8743 45.2727 17.4858 45.2727 18.142C45.2727 18.7983 45.3771 19.4077 45.5859 19.9702C45.7947 20.5327 46.1165 20.9865 46.5511 21.3317C46.9858 21.6768 47.5398 21.8494 48.2131 21.8494ZM54.9647 23V13.1818H56.4221V14.6648H56.5243C56.7033 14.179 57.0272 13.7848 57.4959 13.4822C57.9647 13.1797 58.4931 13.0284 59.0811 13.0284C59.1919 13.0284 59.3304 13.0305 59.4966 13.0348C59.6628 13.0391 59.7885 13.0455 59.8738 13.054V14.5881C59.8226 14.5753 59.7054 14.5561 59.5222 14.5305C59.3432 14.5007 59.1536 14.4858 58.9533 14.4858C58.476 14.4858 58.0499 14.5859 57.6749 14.7862C57.3042 14.9822 57.0101 15.255 56.7928 15.6044C56.5797 15.9496 56.4732 16.3437 56.4732 16.7869V23H54.9647ZM63.0682 19.4205L63.0426 17.554H63.3494L67.6449 13.1818H69.5114L64.9347 17.8097H64.8068L63.0682 19.4205ZM61.6619 23V9.90909H63.1705V23H61.6619ZM67.9006 23L64.0653 18.142L65.1392 17.0938L69.8182 23H67.9006ZM83.47 15.3807L82.1149 15.7642C82.0297 15.5384 81.9039 15.3189 81.7377 15.1058C81.5758 14.8885 81.3542 14.7095 81.073 14.5689C80.7917 14.4283 80.4316 14.358 79.9927 14.358C79.3919 14.358 78.8912 14.4964 78.4906 14.7734C78.0943 15.0462 77.8961 15.3935 77.8961 15.8153C77.8961 16.1903 78.0325 16.4865 78.3052 16.7038C78.5779 16.9212 79.0041 17.1023 79.5836 17.2472L81.041 17.6051C81.9189 17.8182 82.573 18.1442 83.0034 18.5831C83.4338 19.0178 83.649 19.5781 83.649 20.2642C83.649 20.8267 83.487 21.3295 83.1632 21.7727C82.8436 22.2159 82.3961 22.5653 81.8208 22.821C81.2456 23.0767 80.5765 23.2045 79.8137 23.2045C78.8123 23.2045 77.9835 22.9872 77.3272 22.5526C76.671 22.1179 76.2555 21.483 76.0808 20.6477L77.5126 20.2898C77.649 20.8182 77.9068 21.2145 78.286 21.4787C78.6696 21.7429 79.1703 21.875 79.7882 21.875C80.4913 21.875 81.0495 21.7259 81.4629 21.4276C81.8805 21.125 82.0893 20.7628 82.0893 20.3409C82.0893 20 81.97 19.7145 81.7314 19.4844C81.4927 19.25 81.1262 19.0753 80.6319 18.9602L78.9956 18.5767C78.0964 18.3636 77.4359 18.0334 77.014 17.5859C76.5964 17.1342 76.3876 16.5696 76.3876 15.892C76.3876 15.3381 76.5431 14.848 76.8542 14.4219C77.1696 13.9957 77.5978 13.6612 78.139 13.4183C78.6845 13.1754 79.3024 13.054 79.9927 13.054C80.9643 13.054 81.7271 13.267 82.2811 13.6932C82.8393 14.1193 83.2356 14.6818 83.47 15.3807ZM87.4283 17.0938V23H85.9197V9.90909H87.4283V14.7159H87.5561C87.7862 14.2088 88.1314 13.8061 88.5916 13.5078C89.0561 13.2053 89.674 13.054 90.4453 13.054C91.1143 13.054 91.7003 13.1882 92.2031 13.4567C92.706 13.7209 93.0959 14.1278 93.3729 14.6776C93.6541 15.223 93.7947 15.9176 93.7947 16.7614V23H92.2862V16.8636C92.2862 16.0838 92.0838 15.4808 91.679 15.0547C91.2784 14.6243 90.7223 14.4091 90.0107 14.4091C89.5163 14.4091 89.0732 14.5135 88.6811 14.7223C88.2933 14.9311 87.9865 15.2358 87.7607 15.6364C87.5391 16.0369 87.4283 16.5227 87.4283 17.0938ZM100.543 23.2045C99.6568 23.2045 98.8791 22.9936 98.21 22.5717C97.5453 22.1499 97.0254 21.5597 96.6504 20.8011C96.2797 20.0426 96.0943 19.1562 96.0943 18.142C96.0943 17.1193 96.2797 16.2266 96.6504 15.4638C97.0254 14.701 97.5453 14.1087 98.21 13.6868C98.8791 13.2649 99.6568 13.054 100.543 13.054C101.43 13.054 102.205 13.2649 102.87 13.6868C103.539 14.1087 104.059 14.701 104.43 15.4638C104.805 16.2266 104.992 17.1193 104.992 18.142C104.992 19.1562 104.805 20.0426 104.43 20.8011C104.059 21.5597 103.539 22.1499 102.87 22.5717C102.205 22.9936 101.43 23.2045 100.543 23.2045ZM100.543 21.8494C101.216 21.8494 101.77 21.6768 102.205 21.3317C102.64 20.9865 102.961 20.5327 103.17 19.9702C103.379 19.4077 103.483 18.7983 103.483 18.142C103.483 17.4858 103.379 16.8743 103.17 16.3075C102.961 15.7408 102.64 15.2827 102.205 14.9332C101.77 14.5838 101.216 14.4091 100.543 14.4091C99.8699 14.4091 99.3159 14.5838 98.8812 14.9332C98.4466 15.2827 98.1248 15.7408 97.916 16.3075C97.7072 16.8743 97.6028 17.4858 97.6028 18.142C97.6028 18.7983 97.7072 19.4077 97.916 19.9702C98.1248 20.5327 98.4466 20.9865 98.8812 21.3317C99.3159 21.6768 99.8699 21.8494 100.543 21.8494ZM109.185 23L106.194 13.1818H107.779L109.901 20.6989H110.003L112.1 13.1818H113.711L115.782 20.6733H115.884L118.006 13.1818H119.591L116.6 23H115.117L112.969 15.4574H112.816L110.668 23H109.185ZM125.24 23.2045C124.32 23.2045 123.527 22.9872 122.863 22.5526C122.198 22.1179 121.686 21.5192 121.328 20.7564C120.971 19.9936 120.792 19.1222 120.792 18.142C120.792 17.1449 120.975 16.2649 121.341 15.5021C121.712 14.7351 122.228 14.1364 122.888 13.706C123.553 13.2713 124.328 13.054 125.215 13.054C125.905 13.054 126.527 13.1818 127.081 13.4375C127.635 13.6932 128.089 14.0511 128.443 14.5114C128.797 14.9716 129.016 15.5085 129.101 16.1222H127.593C127.478 15.6747 127.222 15.2784 126.826 14.9332C126.434 14.5838 125.905 14.4091 125.24 14.4091C124.652 14.4091 124.137 14.5625 123.694 14.8693C123.255 15.1719 122.912 15.6001 122.664 16.1541C122.422 16.7038 122.3 17.3494 122.3 18.0909C122.3 18.8494 122.419 19.5099 122.658 20.0724C122.901 20.6349 123.242 21.0717 123.681 21.3828C124.124 21.6939 124.644 21.8494 125.24 21.8494C125.632 21.8494 125.988 21.7812 126.308 21.6449C126.627 21.5085 126.898 21.3125 127.12 21.0568C127.341 20.8011 127.499 20.4943 127.593 20.1364H129.101C129.016 20.7159 128.805 21.2379 128.468 21.7024C128.136 22.1626 127.695 22.5291 127.145 22.8018C126.6 23.0703 125.965 23.2045 125.24 23.2045ZM134.196 23.2301C133.574 23.2301 133.009 23.1129 132.502 22.8786C131.995 22.6399 131.592 22.2969 131.294 21.8494C130.995 21.3977 130.846 20.8523 130.846 20.2131C130.846 19.6506 130.957 19.1946 131.179 18.8452C131.4 18.4915 131.696 18.2145 132.067 18.0142C132.438 17.8139 132.847 17.6648 133.294 17.5668C133.746 17.4645 134.2 17.3835 134.656 17.3239C135.252 17.2472 135.736 17.1896 136.107 17.1513C136.482 17.1087 136.755 17.0384 136.925 16.9403C137.1 16.8423 137.187 16.6719 137.187 16.429V16.3778C137.187 15.7472 137.015 15.2571 136.669 14.9077C136.328 14.5582 135.811 14.3835 135.116 14.3835C134.396 14.3835 133.831 14.5412 133.422 14.8565C133.013 15.1719 132.725 15.5085 132.559 15.8665L131.127 15.3551C131.383 14.7585 131.724 14.294 132.15 13.9616C132.581 13.625 133.049 13.3906 133.556 13.2585C134.068 13.1222 134.571 13.054 135.065 13.054C135.38 13.054 135.743 13.0923 136.152 13.169C136.565 13.2415 136.963 13.3928 137.347 13.6229C137.735 13.853 138.056 14.2003 138.312 14.6648C138.568 15.1293 138.696 15.7514 138.696 16.5312V23H137.187V21.6705H137.11C137.008 21.8835 136.838 22.1115 136.599 22.3544C136.36 22.5973 136.043 22.804 135.647 22.9744C135.25 23.1449 134.767 23.2301 134.196 23.2301ZM134.426 21.875C135.022 21.875 135.525 21.7578 135.934 21.5234C136.348 21.2891 136.659 20.9865 136.868 20.6158C137.081 20.245 137.187 19.8551 137.187 19.446V18.0653C137.123 18.142 136.983 18.2124 136.765 18.2763C136.552 18.3359 136.305 18.3892 136.024 18.4361C135.747 18.4787 135.476 18.517 135.212 18.5511C134.952 18.581 134.741 18.6065 134.579 18.6278C134.187 18.679 133.821 18.7621 133.48 18.8771C133.143 18.9879 132.87 19.1562 132.662 19.3821C132.457 19.6037 132.355 19.9062 132.355 20.2898C132.355 20.8139 132.549 21.2102 132.936 21.4787C133.328 21.7429 133.825 21.875 134.426 21.875ZM148.404 15.3807L147.048 15.7642C146.963 15.5384 146.838 15.3189 146.671 15.1058C146.509 14.8885 146.288 14.7095 146.007 14.5689C145.725 14.4283 145.365 14.358 144.926 14.358C144.325 14.358 143.825 14.4964 143.424 14.7734C143.028 15.0462 142.83 15.3935 142.83 15.8153C142.83 16.1903 142.966 16.4865 143.239 16.7038C143.512 16.9212 143.938 17.1023 144.517 17.2472L145.975 17.6051C146.852 17.8182 147.507 18.1442 147.937 18.5831C148.367 19.0178 148.583 19.5781 148.583 20.2642C148.583 20.8267 148.421 21.3295 148.097 21.7727C147.777 22.2159 147.33 22.5653 146.754 22.821C146.179 23.0767 145.51 23.2045 144.747 23.2045C143.746 23.2045 142.917 22.9872 142.261 22.5526C141.605 22.1179 141.189 21.483 141.014 20.6477L142.446 20.2898C142.583 20.8182 142.84 21.2145 143.22 21.4787C143.603 21.7429 144.104 21.875 144.722 21.875C145.425 21.875 145.983 21.7259 146.396 21.4276C146.814 21.125 147.023 20.7628 147.023 20.3409C147.023 20 146.904 19.7145 146.665 19.4844C146.426 19.25 146.06 19.0753 145.566 18.9602L143.929 18.5767C143.03 18.3636 142.369 18.0334 141.948 17.5859C141.53 17.1342 141.321 16.5696 141.321 15.892C141.321 15.3381 141.477 14.848 141.788 14.4219C142.103 13.9957 142.531 13.6612 143.073 13.4183C143.618 13.1754 144.236 13.054 144.926 13.054C145.898 13.054 146.661 13.267 147.215 13.6932C147.773 14.1193 148.169 14.6818 148.404 15.3807ZM154.97 23.2045C154.024 23.2045 153.208 22.9957 152.522 22.5781C151.84 22.1562 151.314 21.5682 150.943 20.8139C150.576 20.0554 150.393 19.1733 150.393 18.1676C150.393 17.1619 150.576 16.2756 150.943 15.5085C151.314 14.7372 151.829 14.1364 152.49 13.706C153.154 13.2713 153.93 13.054 154.816 13.054C155.328 13.054 155.833 13.1392 156.331 13.3097C156.83 13.4801 157.284 13.7571 157.693 14.1406C158.102 14.5199 158.428 15.0227 158.671 15.6491C158.914 16.2756 159.035 17.0469 159.035 17.9631V18.6023H151.467V17.2983H157.501C157.501 16.7443 157.39 16.25 157.169 15.8153C156.951 15.3807 156.64 15.0376 156.235 14.7862C155.835 14.5348 155.362 14.4091 154.816 14.4091C154.216 14.4091 153.696 14.5582 153.257 14.8565C152.822 15.1506 152.488 15.5341 152.253 16.0071C152.019 16.4801 151.902 16.9872 151.902 17.5284V18.3977C151.902 19.1392 152.029 19.7678 152.285 20.2834C152.545 20.7947 152.905 21.1847 153.365 21.4531C153.826 21.7173 154.36 21.8494 154.97 21.8494C155.366 21.8494 155.724 21.794 156.044 21.6832C156.368 21.5682 156.647 21.3977 156.881 21.1719C157.115 20.9418 157.297 20.6562 157.424 20.3153L158.882 20.7244C158.728 21.2188 158.471 21.6534 158.108 22.0284C157.746 22.3991 157.299 22.6889 156.766 22.8977C156.233 23.1023 155.635 23.2045 154.97 23.2045Z" fill="url(#paint0_linear_1_483)"/>
<path fill-rule="evenodd" clip-rule="evenodd" d="M10.9422 21.782L6.65609 23.9997H0.671875L3.15407 19.8867L18.7256 19.8867L21.2126 23.9997H15.2284L10.9422 21.782Z" fill="url(#paint1_linear_1_483)"/>
<path fill-rule="evenodd" clip-rule="evenodd" d="M17.7427 18.2613L10.9407 21.7826L4.13867 18.2613L10.9407 7L17.7427 18.2613ZM13.0044 16.924L10.9407 13.5086L8.87699 16.924L10.9407 17.9919L13.0044 16.924Z" fill="url(#paint2_linear_1_483)"/>
<defs>
<linearGradient id="paint0_linear_1_483" x1="26.1464" y1="-3.67392e-07" x2="114.685" y2="81.7845" gradientUnits="userSpaceOnUse">
<stop stop-color="#5163FF"/>
<stop offset="1" stop-color="#FE71B9"/>
</linearGradient>
<linearGradient id="paint1_linear_1_483" x1="0.591323" y1="19.8867" x2="11.9538" y2="32.4042" gradientUnits="userSpaceOnUse">
<stop stop-color="#5163FF"/>
<stop offset="1" stop-color="#FE71B9"/>
</linearGradient>
<linearGradient id="paint2_linear_1_483" x1="4.08532" y1="7" x2="20.0843" y2="10.2478" gradientUnits="userSpaceOnUse">
<stop stop-color="#5163FF"/>
<stop offset="1" stop-color="#FE71B9"/>
</linearGradient>
</defs>
</svg>
